<svg id="Layer_1" xmlns="http://www.w3.org/2000/svg" xmlns:xlink="http://www.w3.org/1999/xlink" viewBox="-128 688.2 150 150"><style>.st0{fill:#1A9CB5;} .st1{fill:#47AFC3;} .st2{fill:#9BCB52;} .st3{fill:#83AC45;} .st4{clip-path:url(#SVGID_2_);} .st5{clip-path:url(#SVGID_4_);fill:#43AEE3;} .st6{clip-path:url(#SVGID_6_);fill:#EF4941;} .st7{clip-path:url(#SVGID_8_);fill:#F9A31A;} .st8{clip-path:url(#SVGID_10_);fill:#75BF43;} .st9{clip-path:url(#SVGID_12_);fill:#24B89D;} .st10{clip-path:url(#SVGID_14_);fill:#872C73;} .st11{clip-path:url(#SVGID_16_);fill:#57BFED;} .st12{clip-path:url(#SVGID_18_);fill:#F2714F;} .st13{fill:#FFFFFF;}</style><defs><path id="SVGID_1_" d="M-51 809c-25.2 0-45.7-20.5-45.7-45.7s20.5-45.7 45.7-45.7S-5.3 738-5.3 763.2-25.8 809-51 809zm0-81.2c-19.6 0-35.5 15.9-35.5 35.5s15.9 35.5 35.5 35.5 35.5-15.9 35.5-35.5-15.9-35.5-35.5-35.5z"/></defs><clipPath id="SVGID_2_"><use xlink:href="#SVGID_1_" overflow="visible"/></clipPath><g class="st4"><defs><path id="SVGID_3_" d="M-51.1 717.1c9.8 0 19.2 3 27.2 8.9l-6.2 8.7c-6-4.4-13.3-6.8-21-6.8v-10.8z"/></defs><clipPath id="SVGID_4_"><use xlink:href="#SVGID_3_" overflow="visible"/></clipPath><path class="st5" d="M-60 708.2h45v35.2h-45v-35.2z"/><defs><path id="SVGID_5_" d="M-24 726c8.7 6.4 14.9 15.5 17.6 26l-10.3 2.7c-2.1-8-6.8-15.1-13.5-19.9l6.2-8.8z"/></defs><clipPath id="SVGID_6_"><use xlink:href="#SVGID_5_" overflow="visible"/></clipPath><path class="st6" d="M-39.2 717.1H2.4v46.4h-41.6v-46.4z"/><defs><path id="SVGID_7_" d="M-6.4 751.9c4.1 16-.5 32.9-12.4 44.4-6.6 6.4-14.8 10.7-23.6 12.4l-2-10.5c12.4-2.3 22.8-11.2 26.8-23.3 2.3-6.6 2.7-13.7.9-20.4-.1.1 10.3-2.6 10.3-2.6z"/></defs><clipPath id="SVGID_8_"><use xlink:href="#SVGID_7_" overflow="visible"/></clipPath><path class="st7" d="M-53.4 743.1H3.9v74.7h-57.2v-74.7z"/><g><defs><path id="SVGID_9_" d="M-42.5 808.8c-7.6 1.4-15.5.9-22.9-1.4l3.4-10.1c5.7 1.8 11.7 2.3 17.6 1.1l1.9 10.4z"/></defs><clipPath id="SVGID_10_"><use xlink:href="#SVGID_9_" overflow="visible"/></clipPath><path class="st8" d="M-74.4 788.4h40.7v30.2h-40.7v-30.2z"/></g><g><defs><path id="SVGID_11_" d="M-65 807.4c-12.1-3.9-22-12.8-27.6-24.4l9.6-4.4c4.3 8.9 11.9 15.6 21.2 18.7l-3.2 10.1z"/></defs><clipPath id="SVGID_12_"><use xlink:href="#SVGID_11_" overflow="visible"/></clipPath><path class="st9" d="M-101.5 769.7h48.7v46.6h-48.7v-46.6z"/></g><g><defs><path id="SVGID_13_" d="M-92.5 783.1c-7.2-15-5.5-32.7 3.9-46.3 1.8-2.7 3.9-5.2 6.3-7.3l7.3 7.9c-9.3 8.8-13.2 21.8-10.4 34.4.5 2.5 1.4 4.8 2.5 7.2l-9.6 4.1z"/></defs><clipPath id="SVGID_14_"><use xlink:href="#SVGID_13_" overflow="visible"/></clipPath><path class="st10" d="M-105.7 720.4h39.9V792h-39.9v-71.6z"/></g><g><defs><path id="SVGID_15_" d="M-82.7 729.8c5-4.6 10.8-8.2 17.4-10.3l3.4 10.1c-5 1.6-9.6 4.3-13.3 7.8l-7.5-7.6z"/></defs><clipPath id="SVGID_16_"><use xlink:href="#SVGID_15_" overflow="visible"/></clipPath><path class="st11" d="M-91.6 710.6h38.4v35.7h-38.4v-35.7z"/></g><g><defs><path id="SVGID_17_" d="M-65.3 719.4c4.6-1.4 9.4-2.3 14.2-2.3v10.7c-3.7 0-7.5.5-11 1.8l-3.2-10.2z"/></defs><clipPath id="SVGID_18_"><use xlink:href="#SVGID_17_" overflow="visible"/></clipPath><path class="st12" d="M-74.2 708.2h32v30.2h-32v-30.2z"/></g></g></svg>