<svg id="Layer_1" xmlns="http://www.w3.org/2000/svg" viewBox="-306.2 688.2 150 150"><style>.st0{fill:#1A9CB5;} .st1{fill:#47AFC3;} .st2{fill:#9BCB52;} .st3{fill:#83AC45;} .st4{clip-path:url(#SVGID_2_);} .st5{clip-path:url(#SVGID_4_);fill:#43AEE3;} .st6{clip-path:url(#SVGID_6_);fill:#EF4941;} .st7{clip-path:url(#SVGID_8_);fill:#F9A31A;} .st8{clip-path:url(#SVGID_10_);fill:#75BF43;} .st9{clip-path:url(#SVGID_12_);fill:#24B89D;} .st10{clip-path:url(#SVGID_14_);fill:#872C73;} .st11{clip-path:url(#SVGID_16_);fill:#57BFED;} .st12{clip-path:url(#SVGID_18_);fill:#F2714F;} .st13{fill:#FFFFFF;}</style><path class="st2" d="M-285.9 729.2h107.4c1.7 0 3.1 1.4 3.1 3.1v59.9c0 1.7-1.4 3.1-3.1 3.1h-107.4c-1.7 0-3.1-1.4-3.1-3.1v-59.9c0-1.7 1.4-3.1 3.1-3.1z"/><path class="st3" d="M-200.9 787.9h-63.2c-1.2 0-2.3-.9-2.3-2.1-.2-4.6-3.5-8.3-7.7-8.4-1.2 0-2.3-1.1-2.3-2.3v-23.6c0-1.2.9-2.3 2.1-2.3 4.3-.2 7.7-4.1 7.7-9.1v-.8c0-.6.2-1.2.6-1.7.5-.5 1.1-.8 1.7-.8h63.4c1.2 0 2.3 1.1 2.3 2.3.2 4.9 3.7 8.7 7.8 8.7h.2c.6 0 1.2.2 1.7.6.5.5.8 1.1.8 1.7V774c0 .6-.3 1.2-.8 1.7s-1.1.6-1.7.6h-.4c-4.3 0-7.8 4-7.8 8.9v.3c0 .6-.2 1.2-.6 1.7-.3.4-.9.7-1.5.7zm-61.2-4.6h59.1c.8-5.8 5.1-10.6 10.3-11.5v-19.5c-5.2-.9-9.2-5.2-10.3-10.9h-59.1c-.5 6-4.5 10.7-9.8 12V773c4.9 1.1 8.7 5.1 9.8 10.3z"/><circle class="st3" cx="-232.2" cy="762.2" r="12"/></svg>