<svg id="Layer_1" xmlns="http://www.w3.org/2000/svg" viewBox="56 688.2 150 150"><style>.st0{fill:#1A9CB5;} .st1{fill:#47AFC3;} .st2{fill:#9BCB52;} .st3{fill:#83AC45;} .st4{clip-path:url(#SVGID_2_);} .st5{clip-path:url(#SVGID_4_);fill:#43AEE3;} .st6{clip-path:url(#SVGID_6_);fill:#EF4941;} .st7{clip-path:url(#SVGID_8_);fill:#F9A31A;} .st8{clip-path:url(#SVGID_10_);fill:#75BF43;} .st9{clip-path:url(#SVGID_12_);fill:#24B89D;} .st10{clip-path:url(#SVGID_14_);fill:#872C73;} .st11{clip-path:url(#SVGID_16_);fill:#57BFED;} .st12{clip-path:url(#SVGID_18_);fill:#F2714F;} .st13{fill:#FFFFFF;}</style><path class="st2" d="M154.7 815.9h-47.5c-3.5 0-6.2-2.9-6.2-6.2v-96.4c0-3.5 2.9-6.2 6.2-6.2h47.5c3.5 0 6.2 2.9 6.2 6.2v96.3c.1 3.4-2.8 6.3-6.2 6.3z"/><path class="st13" d="M151.1 800.5h-40.2c-2 0-3.7-1.7-3.7-3.7v-75c0-2 1.7-3.7 3.7-3.7h40.2c2 0 3.7 1.7 3.7 3.7v75c-.1 2.1-1.7 3.7-3.7 3.7z"/><circle class="st13" cx="131" cy="808.1" r="4.1"/><path class="st13" d="M139.4 713.2h-16.7c-.6 0-1.1-.5-1.1-1.1 0-.6.5-1.1 1.1-1.1h16.7c.6 0 1.1.5 1.1 1.1-.1.5-.7 1.1-1.1 1.1z"/></svg>